<svg xmlns="http://www.w3.org/2000/svg" xmlns:xlink="http://www.w3.org/1999/xlink"
    style="display:none">
    <symbol id="icon-part3" viewBox="0 0 24 24">
        <path
            d="M12.2197 11.1484H11.167V12.6934H12.2129C13.3066 12.6934 13.8535 13.1901 13.8535 14.1836C13.8535 14.5938 13.7191 14.9242 13.4502 15.1748C13.1859 15.4209 12.819 15.5439 12.3496 15.5439C11.9395 15.5439 11.5931 15.4255 11.3105 15.1885C11.0326 14.9515 10.8936 14.6462 10.8936 14.2725H8.91797C8.91797 15.1338 9.23242 15.8265 9.86133 16.3506C10.4948 16.8747 11.3083 17.1367 12.3018 17.1367C13.3636 17.1367 14.2158 16.8701 14.8584 16.3369C15.5055 15.8037 15.8291 15.0951 15.8291 14.2109C15.8291 13.6641 15.6901 13.1901 15.4121 12.7891C15.1387 12.388 14.7217 12.0872 14.1611 11.8867C14.6123 11.6816 14.9769 11.3877 15.2549 11.0049C15.5329 10.6221 15.6719 10.2028 15.6719 9.74707C15.6719 8.86296 15.3734 8.17025 14.7764 7.66895C14.1794 7.16309 13.3545 6.91016 12.3018 6.91016C11.6956 6.91016 11.1396 7.02637 10.6338 7.25879C10.1325 7.49121 9.74056 7.81478 9.45801 8.22949C9.18001 8.63965 9.04102 9.10449 9.04102 9.62402H11.0166C11.0166 9.29134 11.1442 9.02246 11.3994 8.81738C11.6546 8.60775 11.9714 8.50293 12.3496 8.50293C12.7689 8.50293 13.097 8.61458 13.334 8.83789C13.5755 9.0612 13.6963 9.37337 13.6963 9.77441C13.6963 10.1891 13.5755 10.5218 13.334 10.7725C13.0924 11.0231 12.721 11.1484 12.2197 11.1484Z"
            fill="currentColor" />
        <path fill-rule="evenodd" clip-rule="evenodd"
            d="M22 12C22 17.5228 17.5228 22 12 22C6.47715 22 2 17.5228 2 12C2 6.47715 6.47715 2 12 2C17.5228 2 22 6.47715 22 12ZM20 12C20 16.4183 16.4183 20 12 20C7.58172 20 4 16.4183 4 12C4 7.58172 7.58172 4 12 4C16.4183 4 20 7.58172 20 12Z"
            fill="currentColor" />
    </symbol>
    <symbol id="icon-part4" viewBox="-1 0 19 19">
        <path
            d="M10.59 1.966a7.95 7.95 0 0 1 5.544 5.532 7.906 7.906 0 0 1 0 4.192 7.91 7.91 0 0 1-2.04 3.494 8.06 8.06 0 0 1-1.61 1.246 7.882 7.882 0 0 1-1.895.804 7.82 7.82 0 0 1-6.079-.804 8.115 8.115 0 0 1-1.603-1.246A7.914 7.914 0 0 1 .866 11.69a7.923 7.923 0 0 1 0-4.193 7.96 7.96 0 0 1 5.53-5.53 7.907 7.907 0 0 1 4.193 0zM6.695 3.034a6.849 6.849 0 0 0-1.624.687A6.919 6.919 0 0 0 2.62 6.173a6.847 6.847 0 0 0-.688 1.624 6.806 6.806 0 0 0 0 3.595 6.811 6.811 0 0 0 .688 1.627A6.918 6.918 0 0 0 3.69 14.4a7.052 7.052 0 0 0 1.385 1.076 6.763 6.763 0 0 0 1.62.69 6.81 6.81 0 0 0 3.595 0 6.828 6.828 0 0 0 1.631-.692 6.998 6.998 0 0 0 1.387-1.074 6.916 6.916 0 0 0 1.07-1.382 6.816 6.816 0 0 0 .687-1.627 6.802 6.802 0 0 0 0-3.595 6.846 6.846 0 0 0-4.775-4.763 6.798 6.798 0 0 0-3.595 0zm4.33 8.817v-1.26h-.908V6.572h-1.86l-2.668 3.973v1.306h3.084v1.278h1.455v-1.278zm-2.344-1.26H7.1l1.556-2.426h.027z"
            fill="currentColor" />
    </symbol>
    <symbol id="icon-part5" viewBox="0 0 24 24">
        <path
            d="M10.0254 7.04688L9.45117 12.1055L11.0234 12.4951L11.2148 12.3174C11.5065 12.0713 11.887 11.9482 12.3564 11.9482C12.8669 11.9482 13.2611 12.0986 13.5391 12.3994C13.8171 12.7002 13.9561 13.1331 13.9561 13.6982C13.9561 14.2861 13.8353 14.7419 13.5938 15.0654C13.3522 15.3844 13.0081 15.5439 12.5615 15.5439C12.1605 15.5439 11.8346 15.43 11.584 15.2021C11.3379 14.9697 11.1943 14.6462 11.1533 14.2314H9.19824C9.21647 14.7965 9.3737 15.3001 9.66992 15.7422C9.9707 16.1842 10.3786 16.5283 10.8936 16.7744C11.4085 17.016 11.9668 17.1367 12.5684 17.1367C13.2565 17.1367 13.8535 16.9977 14.3594 16.7197C14.8652 16.4372 15.2526 16.043 15.5215 15.5371C15.7949 15.0267 15.9316 14.4502 15.9316 13.8076C15.9316 12.7503 15.6628 11.9277 15.125 11.3398C14.5872 10.752 13.8444 10.458 12.8965 10.458C12.3678 10.458 11.8688 10.5833 11.3994 10.834L11.6455 8.69434H15.6035V7.04688H10.0254Z"
            fill="currentColor" />
        <path fill-rule="evenodd" clip-rule="evenodd"
            d="M22 12C22 17.5228 17.5228 22 12 22C6.47715 22 2 17.5228 2 12C2 6.47715 6.47715 2 12 2C17.5228 2 22 6.47715 22 12ZM20 12C20 16.4183 16.4183 20 12 20C7.58172 20 4 16.4183 4 12C4 7.58172 7.58172 4 12 4C16.4183 4 20 7.58172 20 12Z"
            fill="currentColor" />
    </symbol>


    <symbol id="icon-part6" viewBox="0 0 24 24">
        <path
            d="M13.5166 8.57129V6.94434H13.1885C12.1813 6.94889 11.2949 7.17904 10.5293 7.63477C9.76823 8.08594 9.18262 8.72624 8.77246 9.55566C8.36686 10.3805 8.16406 11.333 8.16406 12.4131V13.124C8.16406 14.3408 8.48535 15.3138 9.12793 16.043C9.77506 16.7721 10.6227 17.1367 11.6709 17.1367C12.318 17.1367 12.8968 16.9909 13.4072 16.6992C13.9222 16.4076 14.3187 15.9997 14.5967 15.4756C14.8792 14.9515 15.0205 14.3659 15.0205 13.7188C15.0205 12.707 14.7653 11.8913 14.2549 11.2715C13.7445 10.6517 13.0563 10.3418 12.1904 10.3418C11.3838 10.3418 10.7161 10.6107 10.1875 11.1484C10.2969 10.3464 10.6227 9.71973 11.165 9.26855C11.7119 8.81738 12.432 8.58496 13.3252 8.57129H13.5166ZM10.7207 12.1807C10.9805 12.012 11.2699 11.9277 11.5889 11.9277C12.0355 11.9277 12.391 12.0941 12.6553 12.4268C12.9196 12.7594 13.0518 13.1969 13.0518 13.7393C13.0518 14.2725 12.9196 14.7077 12.6553 15.0449C12.3955 15.3776 12.0537 15.5439 11.6299 15.5439C11.1605 15.5439 10.7959 15.3594 10.5361 14.9902C10.2764 14.6165 10.1465 14.0993 10.1465 13.4385V12.8369C10.2695 12.5635 10.4609 12.3447 10.7207 12.1807Z"
            fill="currentColor" />
        <path fill-rule="evenodd" clip-rule="evenodd"
            d="M22 12C22 17.5228 17.5228 22 12 22C6.47715 22 2 17.5228 2 12C2 6.47715 6.47715 2 12 2C17.5228 2 22 6.47715 22 12ZM20 12C20 16.4183 16.4183 20 12 20C7.58172 20 4 16.4183 4 12C4 7.58172 7.58172 4 12 4C16.4183 4 20 7.58172 20 12Z"
            fill="currentColor" />
    </symbol>
</svg>